<svg xmlns="http://www.w3.org/2000/svg" viewBox="0 0 1600 980" role="img" aria-labelledby="title desc">
  <title id="title">WebRoutines end-to-end flow animation</title>
  <desc id="desc">Animated sequence: empty tab with Runner Home, starting a routine, tab-group step navigation, focus mode mini-controller, then returning to sidepanel.</desc>
  <defs>
    <linearGradient id="bg" x1="0" y1="0" x2="0" y2="1">
      <stop offset="0%" stop-color="#111113" />
      <stop offset="100%" stop-color="#08080a" />
    </linearGradient>
    <linearGradient id="mainPane" x1="0" y1="0" x2="1" y2="1">
      <stop offset="0%" stop-color="#0f1117" />
      <stop offset="100%" stop-color="#0b0d12" />
    </linearGradient>
    <linearGradient id="sidebarPane" x1="0" y1="0" x2="0" y2="1">
      <stop offset="0%" stop-color="#14161d" />
      <stop offset="100%" stop-color="#101219" />
    </linearGradient>
    <filter id="softShadow" x="-20%" y="-20%" width="140%" height="140%">
      <feDropShadow dx="0" dy="8" stdDeviation="12" flood-color="#000" flood-opacity="0.35" />
    </filter>
  </defs>

  <style>
    .txt { fill: #ededef; font-family: 'DM Sans', 'Inter', system-ui, sans-serif; }
    .muted { fill: #8b8b8e; }
    .mono { font-family: 'JetBrains Mono', ui-monospace, monospace; }
    .title { font-size: 17px; font-weight: 600; }
    .small { font-size: 13px; }
    .tiny { font-size: 11px; }
    .label { font-size: 12px; text-transform: uppercase; letter-spacing: 0.08em; }

    .panel { fill: #14161d; stroke: #2a2a2e; stroke-width: 1; }
    .card { fill: #171a23; stroke: #2a2a2e; stroke-width: 1; }
    .chip { fill: #1b1f2b; stroke: #2a2a2e; stroke-width: 1; }
    .accent { fill: #34d399; }
    .accentStroke { stroke: #34d399; }

    .stage { opacity: 0; }
    .stage1 { animation: stage1 24s linear infinite; }
    .stage2 { animation: stage2 24s linear infinite; }
    .stage3a { animation: stage3a 24s linear infinite; }
    .stage3b { animation: stage3b 24s linear infinite; }
    .stage3c { animation: stage3c 24s linear infinite; }
    .stage4 { animation: stage4 24s linear infinite; }
    .stage5 { animation: stage5 24s linear infinite; }

    @keyframes stage1 { 0%, 14% { opacity: 1; } 18%, 100% { opacity: 0; } }
    @keyframes stage2 { 14%, 28% { opacity: 1; } 12%, 32%, 100% { opacity: 0; } }
    @keyframes stage3a { 30%, 42% { opacity: 1; } 28%, 46%, 100% { opacity: 0; } }
    @keyframes stage3b { 42%, 54% { opacity: 1; } 40%, 58%, 100% { opacity: 0; } }
    @keyframes stage3c { 54%, 66% { opacity: 1; } 52%, 70%, 100% { opacity: 0; } }
    @keyframes stage4 { 68%, 82% { opacity: 1; } 66%, 86%, 100% { opacity: 0; } }
    @keyframes stage5 { 84%, 100% { opacity: 1; } 0%, 82% { opacity: 0; } }

    .cursorPulse { animation: pulse 1.1s ease-in-out infinite; transform-origin: center; }
    @keyframes pulse {
      0%, 100% { opacity: 0.2; transform: scale(0.85); }
      50% { opacity: 0.65; transform: scale(1.1); }
    }

    .flowDot { animation: moveDot 4.8s ease-in-out infinite; }
    @keyframes moveDot {
      0% { transform: translateX(0px); }
      45% { transform: translateX(210px); }
      100% { transform: translateX(420px); }
    }

    .focusPillPulse { animation: focusPulse 2.4s ease-in-out infinite; }
    @keyframes focusPulse {
      0%, 100% { box-shadow: 0 0 0 0 rgba(52,211,153,0.0); }
      50% { box-shadow: 0 0 0 8px rgba(52,211,153,0.14); }
    }
  </style>

  <rect width="1600" height="980" fill="url(#bg)" />
  <rect x="20" y="20" width="1560" height="940" rx="24" fill="#0a0b0f" stroke="#2a2a2e" stroke-width="2" filter="url(#softShadow)" />

  <rect x="20" y="20" width="1560" height="72" rx="24" fill="#111318" />
  <circle cx="56" cy="56" r="7" fill="#f87171" opacity="0.85" />
  <circle cx="80" cy="56" r="7" fill="#fbbf24" opacity="0.85" />
  <circle cx="104" cy="56" r="7" fill="#4ade80" opacity="0.85" />
  <rect x="328" y="42" width="760" height="28" rx="14" fill="#1a1c22" stroke="#2a2a2e" />
  <text x="352" y="60" class="txt muted mono tiny">chrome://newtab • WebRoutines</text>

  <rect x="44" y="104" width="980" height="832" rx="16" fill="url(#mainPane)" stroke="#2a2a2e" />
  <rect x="1040" y="104" width="516" height="832" rx="16" fill="url(#sidebarPane)" stroke="#2a2a2e" />

  <rect x="44" y="104" width="980" height="44" rx="14" fill="#14161d" stroke="#2a2a2e" />

  <g class="stage stage1">
    <rect x="60" y="114" width="170" height="24" rx="9" fill="#1c1f26" stroke="#2a2a2e" />
    <text x="78" y="130" class="txt tiny">New Tab</text>

    <rect x="84" y="182" width="900" height="716" rx="12" fill="#0f1218" stroke="#2a2a2e" />
    <text x="124" y="248" class="txt title">Empty browser tab</text>
    <text x="124" y="276" class="txt muted small">Sidepanel is open with Runner Home and no active runners.</text>

    <rect x="1068" y="132" width="460" height="54" rx="10" class="card" />
    <text x="1090" y="156" class="txt title">Runner Home</text>
    <text x="1090" y="176" class="txt muted tiny">Focus on active routine progress.</text>

    <rect x="1068" y="204" width="460" height="168" rx="10" class="card" />
    <text x="1090" y="228" class="txt small">Active Runners</text>
    <text x="1090" y="252" class="txt muted tiny">No active runners right now.</text>
    <rect x="1090" y="278" width="126" height="28" rx="8" fill="#1b2128" stroke="#2a2a2e" />
    <text x="1104" y="296" class="txt tiny">Start a routine</text>

    <rect x="1068" y="390" width="460" height="220" rx="10" class="card" />
    <text x="1090" y="414" class="txt small">Focused Runner</text>
    <text x="1090" y="437" class="txt muted tiny">No focused runner.</text>

    <text x="1090" y="646" class="txt muted tiny">Next: open routines and start one.</text>
  </g>

  <g class="stage stage2">
    <rect x="60" y="114" width="170" height="24" rx="9" fill="#1c1f26" stroke="#2a2a2e" />
    <text x="78" y="130" class="txt tiny">New Tab</text>

    <rect x="84" y="182" width="900" height="716" rx="12" fill="#0f1218" stroke="#2a2a2e" />
    <text x="124" y="248" class="txt title">Open routines list</text>
    <text x="124" y="276" class="txt muted small">Click run on a routine card to create a tab-group runner.</text>

    <rect x="1068" y="132" width="460" height="54" rx="10" class="card" />
    <text x="1090" y="156" class="txt title">Routines</text>
    <text x="1090" y="176" class="txt muted tiny">Create, run, edit, and backup routines.</text>

    <rect x="1068" y="204" width="460" height="74" rx="10" class="card" />
    <text x="1090" y="228" class="txt small">All routines</text>
    <text x="1090" y="248" class="txt muted tiny">1 total routines</text>

    <rect x="1068" y="294" width="460" height="184" rx="10" class="card" />
    <text x="1090" y="320" class="txt small">Morning Ops</text>
    <text x="1090" y="340" class="txt muted tiny">3 links · never run</text>
    <rect x="1090" y="358" width="320" height="28" rx="8" fill="#12151c" stroke="#2a2a2e" />
    <text x="1102" y="376" class="txt tiny">1. dashboard.example.com</text>
    <rect x="1090" y="392" width="320" height="28" rx="8" fill="#12151c" stroke="#2a2a2e" />
    <text x="1102" y="410" class="txt tiny">2. alerts.example.com</text>
    <rect x="1090" y="426" width="320" height="28" rx="8" fill="#12151c" stroke="#2a2a2e" />
    <text x="1102" y="444" class="txt tiny">3. ci.example.com</text>

    <rect x="1462" y="316" width="44" height="44" rx="10" fill="#1a2a24" stroke="#34d399" />
    <polygon points="1479,328 1479,348 1495,338" fill="#34d399" />

    <g transform="translate(1440 300)">
      <path d="M0 0 L0 16 L5 12 L8 20 L11 19 L8 11 L14 11 Z" fill="#f8fafc" />
      <circle class="cursorPulse" cx="40" cy="34" r="14" fill="#34d399" opacity="0.4" />
    </g>
  </g>

  <g class="stage stage3a">
    <rect x="60" y="114" width="200" height="24" rx="9" fill="#17332b" stroke="#34d399" />
    <text x="78" y="130" class="txt tiny">Morning Ops • dashboard</text>
    <rect x="268" y="114" width="188" height="24" rx="9" fill="#1c1f26" stroke="#2a2a2e" />
    <text x="286" y="130" class="txt tiny">Morning Ops • alerts</text>
    <rect x="464" y="114" width="160" height="24" rx="9" fill="#1c1f26" stroke="#2a2a2e" />
    <text x="482" y="130" class="txt tiny">Morning Ops • ci</text>

    <rect x="84" y="162" width="900" height="736" rx="12" fill="#101821" stroke="#2a2a2e" />
    <text x="124" y="206" class="txt title">Step 1/3: Dashboard</text>
    <rect x="124" y="228" width="820" height="120" rx="12" class="card" />
    <text x="150" y="260" class="txt small">Daily summary</text>
    <text x="150" y="286" class="txt muted tiny">Sessions: 42 · Incidents: 0 · Pending: 5</text>

    <rect x="124" y="372" width="260" height="160" rx="12" class="chip" />
    <rect x="404" y="372" width="260" height="160" rx="12" class="chip" />
    <rect x="684" y="372" width="260" height="160" rx="12" class="chip" />

    <rect x="1068" y="132" width="460" height="54" rx="10" class="card" />
    <text x="1090" y="156" class="txt title">Runner Home</text>
    <text x="1090" y="176" class="txt muted tiny">Focus on active routine progress.</text>

    <rect x="1068" y="204" width="460" height="172" rx="10" class="card" />
    <text x="1090" y="228" class="txt small">Active Runners</text>
    <rect x="1090" y="246" width="416" height="110" rx="10" fill="#12161e" stroke="#2a2a2e" />
    <text x="1110" y="270" class="txt small">Morning Ops</text>
    <text x="1110" y="289" class="txt muted tiny">Tab group runner · Loading: lazy</text>
    <text x="1110" y="307" class="txt muted tiny">Step 1/3 (33%)</text>
    <rect x="1110" y="322" width="372" height="8" rx="4" fill="#1e2430" />
    <rect x="1110" y="322" width="124" height="8" rx="4" fill="#34d399" />

    <rect x="1068" y="390" width="460" height="324" rx="10" class="card" />
    <text x="1090" y="414" class="txt small">Focused Runner</text>
    <text x="1090" y="436" class="txt tiny">Morning Ops (1/3)</text>
    <text x="1090" y="454" class="txt muted tiny">Current: dashboard.example.com</text>

    <rect x="1090" y="470" width="100" height="30" rx="8" class="chip" /><text x="1120" y="489" class="txt tiny">Previous</text>
    <rect x="1202" y="470" width="100" height="30" rx="8" fill="#17332b" stroke="#34d399" /><text x="1236" y="489" class="txt tiny">Next</text>
    <rect x="1314" y="470" width="108" height="30" rx="8" class="chip" /><text x="1336" y="489" class="txt tiny">Open current</text>
    <rect x="1434" y="470" width="72" height="30" rx="8" fill="#3a1d22" stroke="#7f1d1d" /><text x="1457" y="489" class="txt tiny">Stop</text>

    <rect x="1090" y="510" width="416" height="30" rx="8" fill="#1a2a24" stroke="#34d399" />
    <text x="1235" y="529" class="txt tiny">Enter focus mode</text>

    <rect x="1090" y="554" width="416" height="36" rx="8" class="chip" /><text x="1104" y="576" class="txt tiny">● 1. dashboard.example.com</text>
    <rect x="1090" y="596" width="416" height="36" rx="8" class="chip" /><text x="1104" y="618" class="txt tiny">○ 2. alerts.example.com</text>
    <rect x="1090" y="638" width="416" height="36" rx="8" class="chip" /><text x="1104" y="660" class="txt tiny">○ 3. ci.example.com</text>
  </g>

  <g class="stage stage3b">
    <rect x="60" y="114" width="200" height="24" rx="9" fill="#1c1f26" stroke="#2a2a2e" />
    <text x="78" y="130" class="txt tiny">Morning Ops • dashboard</text>
    <rect x="268" y="114" width="188" height="24" rx="9" fill="#17332b" stroke="#34d399" />
    <text x="286" y="130" class="txt tiny">Morning Ops • alerts</text>
    <rect x="464" y="114" width="160" height="24" rx="9" fill="#1c1f26" stroke="#2a2a2e" />
    <text x="482" y="130" class="txt tiny">Morning Ops • ci</text>

    <rect x="84" y="162" width="900" height="736" rx="12" fill="#191611" stroke="#2a2a2e" />
    <text x="124" y="206" class="txt title">Step 2/3: Alerts</text>
    <rect x="124" y="228" width="820" height="58" rx="10" fill="#3a1f24" stroke="#7f1d1d" />
    <text x="150" y="264" class="txt small">1 alert needs action</text>

    <rect x="124" y="304" width="820" height="94" rx="10" class="card" />
    <text x="150" y="336" class="txt small">API Latency Spike</text>
    <text x="150" y="360" class="txt muted tiny">Region: us-east · Duration: 4m</text>

    <rect x="1068" y="132" width="460" height="54" rx="10" class="card" />
    <text x="1090" y="156" class="txt title">Runner Home</text>
    <text x="1090" y="176" class="txt muted tiny">Focus on active routine progress.</text>

    <rect x="1068" y="204" width="460" height="172" rx="10" class="card" />
    <text x="1090" y="228" class="txt small">Active Runners</text>
    <rect x="1090" y="246" width="416" height="110" rx="10" fill="#12161e" stroke="#2a2a2e" />
    <text x="1110" y="270" class="txt small">Morning Ops</text>
    <text x="1110" y="289" class="txt muted tiny">Tab group runner · Loading: lazy</text>
    <text x="1110" y="307" class="txt muted tiny">Step 2/3 (67%)</text>
    <rect x="1110" y="322" width="372" height="8" rx="4" fill="#1e2430" />
    <rect x="1110" y="322" width="248" height="8" rx="4" fill="#34d399" />

    <rect x="1068" y="390" width="460" height="324" rx="10" class="card" />
    <text x="1090" y="414" class="txt small">Focused Runner</text>
    <text x="1090" y="436" class="txt tiny">Morning Ops (2/3)</text>
    <text x="1090" y="454" class="txt muted tiny">Current: alerts.example.com</text>

    <rect x="1090" y="470" width="100" height="30" rx="8" class="chip" /><text x="1120" y="489" class="txt tiny">Previous</text>
    <rect x="1202" y="470" width="100" height="30" rx="8" fill="#17332b" stroke="#34d399" /><text x="1236" y="489" class="txt tiny">Next</text>
    <rect x="1314" y="470" width="108" height="30" rx="8" class="chip" /><text x="1336" y="489" class="txt tiny">Open current</text>
    <rect x="1434" y="470" width="72" height="30" rx="8" fill="#3a1d22" stroke="#7f1d1d" /><text x="1457" y="489" class="txt tiny">Stop</text>

    <rect x="1090" y="510" width="416" height="30" rx="8" fill="#1a2a24" stroke="#34d399" />
    <text x="1235" y="529" class="txt tiny">Enter focus mode</text>

    <rect x="1090" y="554" width="416" height="36" rx="8" class="chip" /><text x="1104" y="576" class="txt tiny">● 1. dashboard.example.com</text>
    <rect x="1090" y="596" width="416" height="36" rx="8" fill="#1a2a24" stroke="#34d399" /><text x="1104" y="618" class="txt tiny">● 2. alerts.example.com</text>
    <rect x="1090" y="638" width="416" height="36" rx="8" class="chip" /><text x="1104" y="660" class="txt tiny">○ 3. ci.example.com</text>
  </g>

  <g class="stage stage3c">
    <rect x="60" y="114" width="200" height="24" rx="9" fill="#1c1f26" stroke="#2a2a2e" />
    <text x="78" y="130" class="txt tiny">Morning Ops • dashboard</text>
    <rect x="268" y="114" width="188" height="24" rx="9" fill="#1c1f26" stroke="#2a2a2e" />
    <text x="286" y="130" class="txt tiny">Morning Ops • alerts</text>
    <rect x="464" y="114" width="160" height="24" rx="9" fill="#17332b" stroke="#34d399" />
    <text x="482" y="130" class="txt tiny">Morning Ops • ci</text>

    <rect x="84" y="162" width="900" height="736" rx="12" fill="#101820" stroke="#2a2a2e" />
    <text x="124" y="206" class="txt title">Step 3/3: CI Status</text>

    <rect x="124" y="228" width="820" height="84" rx="10" class="card" />
    <text x="150" y="258" class="txt small">Main pipeline: green</text>
    <text x="150" y="282" class="txt muted tiny">12 jobs passed · last run 2m ago</text>

    <rect x="124" y="330" width="398" height="220" rx="10" class="chip" />
    <rect x="546" y="330" width="398" height="220" rx="10" class="chip" />

    <rect x="1068" y="132" width="460" height="54" rx="10" class="card" />
    <text x="1090" y="156" class="txt title">Runner Home</text>
    <text x="1090" y="176" class="txt muted tiny">Focus on active routine progress.</text>

    <rect x="1068" y="204" width="460" height="172" rx="10" class="card" />
    <text x="1090" y="228" class="txt small">Active Runners</text>
    <rect x="1090" y="246" width="416" height="110" rx="10" fill="#12161e" stroke="#2a2a2e" />
    <text x="1110" y="270" class="txt small">Morning Ops</text>
    <text x="1110" y="289" class="txt muted tiny">Tab group runner · Loading: lazy</text>
    <text x="1110" y="307" class="txt muted tiny">Step 3/3 (100%)</text>
    <rect x="1110" y="322" width="372" height="8" rx="4" fill="#1e2430" />
    <rect x="1110" y="322" width="372" height="8" rx="4" fill="#34d399" />

    <rect x="1068" y="390" width="460" height="324" rx="10" class="card" />
    <text x="1090" y="414" class="txt small">Focused Runner</text>
    <text x="1090" y="436" class="txt tiny">Morning Ops (3/3)</text>
    <text x="1090" y="454" class="txt muted tiny">Current: ci.example.com</text>

    <rect x="1090" y="470" width="100" height="30" rx="8" class="chip" /><text x="1120" y="489" class="txt tiny">Previous</text>
    <rect x="1202" y="470" width="100" height="30" rx="8" class="chip" /><text x="1238" y="489" class="txt tiny">Next</text>
    <rect x="1314" y="470" width="108" height="30" rx="8" class="chip" /><text x="1336" y="489" class="txt tiny">Open current</text>
    <rect x="1434" y="470" width="72" height="30" rx="8" fill="#3a1d22" stroke="#7f1d1d" /><text x="1457" y="489" class="txt tiny">Stop</text>

    <rect x="1090" y="510" width="416" height="30" rx="8" fill="#1a2a24" stroke="#34d399" />
    <text x="1235" y="529" class="txt tiny">Enter focus mode</text>

    <g transform="translate(1228 512)">
      <path d="M0 0 L0 16 L5 12 L8 20 L11 19 L8 11 L14 11 Z" fill="#f8fafc" />
      <circle class="cursorPulse" cx="30" cy="18" r="12" fill="#34d399" opacity="0.45" />
    </g>
  </g>

  <g class="stage stage4">
    <rect x="60" y="114" width="200" height="24" rx="9" fill="#1c1f26" stroke="#2a2a2e" />
    <text x="78" y="130" class="txt tiny">Morning Ops • dashboard</text>
    <rect x="268" y="114" width="188" height="24" rx="9" fill="#1c1f26" stroke="#2a2a2e" />
    <text x="286" y="130" class="txt tiny">Morning Ops • alerts</text>
    <rect x="464" y="114" width="160" height="24" rx="9" fill="#17332b" stroke="#34d399" />
    <text x="482" y="130" class="txt tiny">Morning Ops • ci</text>

    <rect x="84" y="162" width="900" height="736" rx="12" fill="#0f1620" stroke="#2a2a2e" />
    <text x="124" y="206" class="txt title">Focus mode on page</text>
    <text x="124" y="232" class="txt muted small">Mini-controller overlays the page for quick next/previous navigation.</text>

    <rect x="124" y="262" width="820" height="180" rx="12" class="card" />
    <rect x="124" y="460" width="400" height="390" rx="12" class="chip" />
    <rect x="544" y="460" width="400" height="390" rx="12" class="chip" />

    <rect x="1040" y="104" width="516" height="832" rx="16" fill="#0c0e13" opacity="0.45" />
    <text x="1190" y="520" class="txt muted tiny">Sidepanel hidden while focused</text>

    <g transform="translate(738 286)">
      <rect x="0" y="0" width="244" height="54" rx="26" fill="#18181b" stroke="#52525b" />
      <text x="18" y="23" class="txt tiny">Morning Ops</text>
      <text x="18" y="39" class="txt muted tiny">3/3</text>

      <rect x="112" y="13" width="34" height="28" rx="14" fill="#27272a" stroke="#52525b" />
      <text x="124" y="32" class="txt tiny">◀</text>
      <rect x="150" y="13" width="34" height="28" rx="14" fill="#27272a" stroke="#52525b" />
      <text x="162" y="32" class="txt tiny">▶</text>
      <rect x="188" y="13" width="46" height="28" rx="14" fill="#27272a" stroke="#52525b" />
      <text x="198" y="32" class="txt tiny">Return</text>
    </g>

    <g transform="translate(938 304)">
      <path d="M0 0 L0 16 L5 12 L8 20 L11 19 L8 11 L14 11 Z" fill="#f8fafc" />
      <circle class="cursorPulse" cx="38" cy="19" r="11" fill="#34d399" opacity="0.45" />
    </g>
  </g>

  <g class="stage stage5">
    <rect x="60" y="114" width="200" height="24" rx="9" fill="#17332b" stroke="#34d399" />
    <text x="78" y="130" class="txt tiny">Morning Ops • dashboard</text>
    <rect x="268" y="114" width="188" height="24" rx="9" fill="#1c1f26" stroke="#2a2a2e" />
    <text x="286" y="130" class="txt tiny">Morning Ops • alerts</text>
    <rect x="464" y="114" width="160" height="24" rx="9" fill="#1c1f26" stroke="#2a2a2e" />
    <text x="482" y="130" class="txt tiny">Morning Ops • ci</text>

    <rect x="84" y="162" width="900" height="736" rx="12" fill="#101821" stroke="#2a2a2e" />
    <text x="124" y="206" class="txt title">Back to sidepanel controls</text>
    <text x="124" y="232" class="txt muted small">Review focused runner and continue with sidebar navigation.</text>

    <rect x="124" y="262" width="820" height="106" rx="12" class="card" />
    <text x="150" y="296" class="txt small">Status: Focus mode exited, runner still active</text>
    <text x="150" y="320" class="txt muted tiny">You can continue with Previous / Next / Jump from sidepanel.</text>

    <rect x="1068" y="132" width="460" height="54" rx="10" class="card" />
    <text x="1090" y="156" class="txt title">Runner Home</text>
    <text x="1090" y="176" class="txt muted tiny">Focus on active routine progress.</text>

    <rect x="1068" y="204" width="460" height="172" rx="10" class="card" />
    <text x="1090" y="228" class="txt small">Active Runners</text>
    <rect x="1090" y="246" width="416" height="110" rx="10" fill="#12161e" stroke="#2a2a2e" />
    <text x="1110" y="270" class="txt small">Morning Ops</text>
    <text x="1110" y="289" class="txt muted tiny">Focused · Active 12m</text>
    <text x="1110" y="307" class="txt muted tiny">Step 3/3 (100%)</text>
    <rect x="1110" y="322" width="372" height="8" rx="4" fill="#1e2430" />
    <rect x="1110" y="322" width="372" height="8" rx="4" fill="#34d399" />

    <rect x="1068" y="390" width="460" height="324" rx="10" class="card" />
    <text x="1090" y="414" class="txt small">Focused Runner</text>
    <text x="1090" y="436" class="txt tiny">Hotkeys: Alt+Shift+Left / Alt+Shift+Right</text>
    <text x="1090" y="454" class="txt muted tiny">Current: dashboard.example.com</text>

    <rect x="1090" y="470" width="100" height="30" rx="8" class="chip" /><text x="1120" y="489" class="txt tiny">Previous</text>
    <rect x="1202" y="470" width="100" height="30" rx="8" class="chip" /><text x="1238" y="489" class="txt tiny">Next</text>
    <rect x="1314" y="470" width="108" height="30" rx="8" class="chip" /><text x="1336" y="489" class="txt tiny">Open current</text>
    <rect x="1434" y="470" width="72" height="30" rx="8" fill="#3a1d22" stroke="#7f1d1d" /><text x="1457" y="489" class="txt tiny">Stop</text>

    <rect x="1090" y="514" width="416" height="34" rx="8" fill="#1a2a24" stroke="#34d399" />
    <text x="1202" y="535" class="txt tiny">Opened current link.</text>

    <rect x="1090" y="560" width="416" height="36" rx="8" fill="#1a2a24" stroke="#34d399" /><text x="1104" y="582" class="txt tiny">● 1. dashboard.example.com</text>
    <rect x="1090" y="602" width="416" height="36" rx="8" fill="#1a2a24" stroke="#34d399" /><text x="1104" y="624" class="txt tiny">● 2. alerts.example.com</text>
    <rect x="1090" y="644" width="416" height="36" rx="8" fill="#1a2a24" stroke="#34d399" /><text x="1104" y="666" class="txt tiny">● 3. ci.example.com</text>
  </g>

  <rect x="44" y="104" width="980" height="832" rx="16" fill="none" stroke="#2a2a2e" />
  <rect x="1040" y="104" width="516" height="832" rx="16" fill="none" stroke="#2a2a2e" />

  <rect x="54" y="898" width="1492" height="30" rx="10" fill="#11151d" stroke="#2a2a2e" />
  <text x="78" y="918" class="txt muted tiny mono">Sequence: Runner Home (empty) → Routines (start) → Tab-group navigation → Focus mode → Return to sidebar</text>
</svg>
