<svg xmlns="http://www.w3.org/2000/svg" width="1200" height="630" viewBox="0 0 1200 630" fill="none">
  <rect width="1200" height="630" fill="#050506"/>
  <rect x="1" y="1" width="1198" height="628" stroke="#2a2a2e" stroke-width="2" fill="none"/>

  <!-- Subtle glow -->
  <ellipse cx="600" cy="250" rx="400" ry="200" fill="#52C972" opacity="0.03"/>

  <!-- Icon -->
  <g transform="translate(540, 160)">
    <path d="M24 36a44 44 0 0 1 72-32.8" stroke="#52C972" stroke-width="8" stroke-linecap="round" fill="none"/>
    <path d="M96 84a44 44 0 0 1-72 32.8" stroke="#52C972" stroke-width="8" stroke-linecap="round" fill="none"/>
    <path d="M90 18l10 18-18 6" stroke="#52C972" stroke-width="7" stroke-linecap="round" stroke-linejoin="round" fill="none"/>
    <path d="M30 102l-10-18 18-6" stroke="#52C972" stroke-width="7" stroke-linecap="round" stroke-linejoin="round" fill="none"/>
    <circle cx="60" cy="60" r="6" fill="#52C972"/>
  </g>

  <!-- Text -->
  <text x="600" y="380" fill="#ededef" font-size="48" font-family="ui-sans-serif, system-ui" font-weight="700" text-anchor="middle">WebRoutines</text>
  <text x="600" y="420" fill="#8b8b8e" font-size="20" font-family="ui-sans-serif, system-ui" text-anchor="middle">Build a routine once. Run it daily in seconds.</text>

  <!-- Tags -->
  <rect x="420" y="460" width="120" height="28" rx="14" fill="#52C972" opacity="0.1" stroke="#52C972" stroke-opacity="0.2"/>
  <text x="480" y="479" fill="#52C972" font-size="12" font-family="ui-monospace, monospace" text-anchor="middle">Local-first</text>
  <rect x="555" y="460" width="90" height="28" rx="14" fill="#52C972" opacity="0.1" stroke="#52C972" stroke-opacity="0.2"/>
  <text x="600" y="479" fill="#52C972" font-size="12" font-family="ui-monospace, monospace" text-anchor="middle">Chrome</text>
  <rect x="660" y="460" width="120" height="28" rx="14" fill="#52C972" opacity="0.1" stroke="#52C972" stroke-opacity="0.2"/>
  <text x="720" y="479" fill="#52C972" font-size="12" font-family="ui-monospace, monospace" text-anchor="middle">Tab Groups</text>
</svg>
